<svg height="302" viewBox="0 0 1073 302" width="1073" xmlns="http://www.w3.org/2000/svg"><g fill="none" fill-rule="evenodd"><path d="m230.115 117.32c-9.04-6.728-15.801 5.224-19.327 12.919-13.991 30.534-46.357 53.699-87.265 53.699-36.248 0-65.695-25.146-65.695-56.372 0-29.879 18.932-53.952 47.565-53.952 16.782 0 26.032 11.401 26.032 23.845 0 14.035-10.113 28.007-32.3 30.888-5.634.732-9.594 5.887-8.408 11.442.797 3.738 3.707 6.766 7.475 7.406 5.566.947 11.409 1.472 17.368 1.472 45.462 0 86.791-27.051 86.791-72.142 0-39.537-34.762-73.759-86.797-73.759-63.166 0-114.554 51.214-114.554 114.554 0 62.858 114.848 181.68 114.848 181.68s133.196-167.591 114.267-181.68" fill="#e98534"/><g fill="#4d4f50"><path d="m377.32 145.789c-2.628-11.53-12.746-19.222-25.694-19.222-12.137 0-22.66 7.287-25.288 19.222zm-51.387 22.66c1.818 12.746 12.543 21.243 26.301 21.243 9.105 0 14.969-3.438 20.432-10.523h34.393c-10.72 24.479-31.157 38.844-54.825 38.844-32.372 0-59.479-26.098-59.479-59.478 0-32.373 25.896-60.289 58.871-60.289 33.583 0 59.277 26.503 59.277 61.301 0 3.236-.203 5.864-.811 8.902z"/><path d="m498.323 214.373-22.458-34.798-22.858 34.798h-40.464l42.687-60.087-37.831-52.197h40.262l18.204 29.537 18.007-29.537h39.856l-37.831 52.197 43.498 60.087z"/><path d="m640.37 158.332c0-15.779-12.137-28.727-28.326-28.727-15.374 0-27.917 12.543-27.917 28.727 0 15.779 12.138 28.524 28.119 28.524 15.987 0 28.124-12.948 28.124-28.524zm-88.413 93.467v-149.71h31.563v12.34h.607c8.902-11.125 21.243-16.183 35.203-16.183 31.963 0 54.623 26.098 54.623 61.099 0 31.962-22.458 58.871-54.623 58.871-13.15 0-24.685-4.046-33.79-13.961v47.544z"/><path d="m690.967 214.373h33.583v-149.71h-33.583z"/><path d="m830.974 158.13c0-14.974-11.327-28.322-27.111-28.322-14.766 0-26.701 12.948-26.701 28.322 0 15.373 11.732 28.321 26.904 28.321 15.783 0 26.908-13.348 26.908-28.321zm-26.908 59.681c-34.191 0-60.492-25.288-60.492-59.681 0-34.799 26.909-59.682 60.492-59.682 33.79 0 60.491 25.289 60.491 59.276 0 35.204-26.701 60.087-60.491 60.087zm79.328-3.438v-112.284h31.562v11.935h.405c5.864-11.935 15.171-15.778 28.119-15.778v33.785c-20.027.203-26.503 7.687-26.503 20.432v61.91zm154.176-56.243c0-14.974-11.33-28.322-27.11-28.322-14.768 0-26.703 12.948-26.703 28.322 0 15.373 11.733 28.321 26.903 28.321 15.78 0 26.91-13.348 26.91-28.321zm-26.91 59.681c-34.19 0-60.491-25.288-60.491-59.681 0-34.799 26.909-59.682 60.491-59.682 33.79 0 60.49 25.289 60.49 59.276 0 35.204-26.7 60.087-60.49 60.087z"/></g></g></svg>